<?xml version="1.0" standalone="no"?>
<!DOCTYPE svg PUBLIC "-//W3C//DTD SVG 1.1//EN" "http://www.w3.org/Graphics/SVG/1.1/DTD/svg11.dtd" >
<svg xmlns="http://www.w3.org/2000/svg">
<metadata>Generated by IcoMoon</metadata>
<defs>
<font id="live_search" horiz-adv-x="1024">
<font-face units-per-em="1024" ascent="870.4" descent="-153.6" />
<missing-glyph horiz-adv-x="1024" />
<glyph unicode="&#x20;" horiz-adv-x="0" d="" />
<glyph unicode="&#xe800;" glyph-name="cogs" horiz-adv-x="1097" d="M512 352q0 60.416-43.008 103.424t-103.424 43.008-103.424-43.008-43.008-103.424 43.008-103.424 103.424-43.008 103.424 43.008 43.008 103.424zM951.296 59.136q0 29.696-22.528 52.224t-51.2 21.504-51.2-21.504-21.504-52.224q0-29.696 21.504-51.2t51.2-21.504 52.224 21.504 21.504 51.2zM951.296 644.864q0 29.696-22.528 51.2t-51.2 21.504-51.2-21.504-21.504-51.2q0-30.72 21.504-52.224t51.2-21.504 52.224 21.504 21.504 52.224zM731.136 404.224v-105.472q0-6.144-4.096-11.264t-8.192-6.144l-89.088-14.336q-6.144-19.456-18.432-43.008 19.456-27.648 51.2-65.536 4.096-6.144 4.096-11.264 0-7.168-4.096-11.264-12.288-17.408-47.104-51.2t-44.032-33.792q-7.168 0-12.288 4.096l-65.536 51.2q-21.504-11.264-44.032-17.408-6.144-61.44-13.312-89.088-4.096-13.312-17.408-13.312h-106.496q-6.144 0-11.264 4.096t-5.12 10.24l-13.312 87.040q-19.456 6.144-43.008 18.432l-67.584-51.2q-4.096-4.096-11.264-4.096-6.144 0-12.288 4.096-81.92 76.8-81.92 92.16 0 5.12 4.096 10.24 5.12 8.192 23.552 30.72t26.624 34.816q-13.312 24.576-20.48 47.104l-87.040 13.312q-5.12 1.024-9.216 5.12t-4.096 11.264v106.496q0 5.12 4.096 10.24t9.216 6.144l88.064 14.336q7.168 19.456 18.432 43.008-19.456 27.648-51.2 65.536-4.096 6.144-4.096 11.264 0 7.168 4.096 12.288 12.288 16.384 47.104 50.176t45.056 33.792q6.144 0 12.288-4.096l65.536-51.2q19.456 10.24 44.032 18.432 6.144 61.44 13.312 88.064 3.072 13.312 16.384 13.312h106.496q6.144 0 11.264-4.096t6.144-10.24l13.312-87.040q19.456-6.144 43.008-17.408l66.56 50.176q5.12 4.096 12.288 4.096 6.144 0 11.264-4.096 82.944-76.8 82.944-92.16 0-4.096-4.096-10.24-7.168-9.216-24.576-30.72t-25.6-34.816q13.312-27.648 19.456-47.104l87.040-12.288q6.144-2.048 9.216-6.144t4.096-11.264zM1096.704 99.072v-79.872q0-9.216-84.992-17.408-6.144-15.36-16.384-29.696 28.672-64.512 28.672-78.848 0-2.048-2.048-4.096-69.632-40.96-70.656-40.96-5.12 0-26.624 27.648t-29.696 37.888q-11.264-1.024-17.408-1.024t-17.408 1.024q-7.168-11.264-29.696-37.888t-25.6-27.648q-1.024 0-70.656 40.96-3.072 2.048-3.072 4.096 0 14.336 29.696 78.848-10.24 14.336-17.408 29.696-84.992 8.192-84.992 17.408v79.872q0 9.216 84.992 18.432 7.168 16.384 17.408 29.696-29.696 64.512-29.696 78.848 0 2.048 3.072 4.096 2.048 1.024 19.456 11.264t33.792 19.456 17.408 9.216q4.096 0 25.6-26.624t29.696-38.912q12.288 1.024 17.408 1.024t17.408-1.024q28.672 40.96 52.224 64.512l4.096 1.024q2.048 0 70.656-39.936 2.048-2.048 2.048-4.096 0-14.336-28.672-78.848 9.216-13.312 16.384-29.696 84.992-9.216 84.992-18.432zM1096.704 684.8v-79.872q0-9.216-84.992-18.432-6.144-15.36-16.384-29.696 28.672-64.512 28.672-78.848 0-2.048-2.048-4.096-69.632-39.936-70.656-39.936-5.12 0-26.624 26.624t-29.696 38.912q-11.264-1.024-17.408-1.024t-17.408 1.024q-7.168-12.288-29.696-38.912t-25.6-26.624q-1.024 0-70.656 39.936-3.072 2.048-3.072 4.096 0 14.336 29.696 78.848-10.24 14.336-17.408 29.696-84.992 9.216-84.992 18.432v79.872q0 9.216 84.992 17.408 7.168 16.384 17.408 29.696-29.696 64.512-29.696 78.848 0 2.048 3.072 4.096 2.048 1.024 19.456 11.264t33.792 19.456 17.408 9.216q4.096 0 25.6-26.624t29.696-37.888q12.288 1.024 17.408 1.024t17.408-1.024q28.672 39.936 52.224 63.488l4.096 1.024q2.048 0 70.656-39.936 2.048-2.048 2.048-4.096 0-14.336-28.672-78.848 9.216-13.312 16.384-29.696 84.992-8.192 84.992-17.408z" />
<glyph unicode="&#xe801;" glyph-name="cog" horiz-adv-x="878" d="M584.704 352q0 60.416-41.984 103.424t-103.424 43.008-103.424-43.008-43.008-103.424 43.008-103.424 103.424-43.008 103.424 43.008 41.984 103.424zM877.568 414.464v-126.976q0-7.168-4.096-13.312t-11.264-7.168l-106.496-16.384q-10.24-30.72-21.504-52.224 19.456-27.648 60.416-78.848 6.144-6.144 6.144-13.312t-5.12-13.312q-15.36-21.504-56.32-62.464t-54.272-39.936q-7.168 0-14.336 5.12l-78.848 61.44q-25.6-13.312-52.224-21.504-9.216-77.824-16.384-106.496-4.096-16.384-20.48-16.384h-126.976q-8.192 0-14.336 5.12t-6.144 12.288l-16.384 105.472q-27.648 9.216-51.2 21.504l-80.896-61.44q-6.144-5.12-14.336-5.12t-14.336 6.144q-71.68 65.536-94.208 96.256-4.096 5.12-4.096 13.312 0 6.144 5.12 12.288 8.192 12.288 28.672 37.888t30.72 40.96q-15.36 28.672-23.552 56.32l-104.448 15.36q-7.168 1.024-11.264 7.168t-5.12 13.312v126.976q0 7.168 5.12 13.312t10.24 7.168l106.496 16.384q8.192 25.6 22.528 52.224-23.552 32.768-61.44 78.848-6.144 7.168-6.144 14.336 0 5.12 5.12 12.288 15.36 20.48 56.32 61.44t54.272 40.96q7.168 0 15.36-5.12l78.848-61.44q24.576 13.312 51.2 21.504 9.216 77.824 17.408 106.496 3.072 16.384 20.48 16.384h126.976q7.168 0 13.312-5.12t7.168-12.288l15.36-105.472q28.672-9.216 52.224-20.48l80.896 60.416q5.12 5.12 13.312 5.12 7.168 0 14.336-5.12 73.728-68.608 94.208-97.28 4.096-5.12 4.096-12.288t-4.096-13.312q-9.216-12.288-29.696-37.888t-30.72-40.96q15.36-28.672 23.552-55.296l104.448-16.384q7.168-1.024 12.288-7.168t4.096-13.312z" />
<glyph unicode="&#xe802;" glyph-name="heart" d="M512-87.296q-14.336 0-25.6 10.24l-356.352 344.064q-5.12 5.12-15.36 15.36t-31.744 37.888-38.912 55.296-30.72 68.608-13.312 78.848q0 125.952 72.704 196.608t200.704 71.68q34.816 0 71.68-12.288t68.608-33.792 55.296-38.912 43.008-38.912q20.48 20.48 43.008 38.912t55.296 38.912 68.608 33.792 71.68 12.288q128 0 200.704-71.68t72.704-196.608q0-125.952-131.072-257.024l-355.328-343.040q-10.24-10.24-25.6-10.24z" />
<glyph unicode="&#xe803;" glyph-name="heart-empty" d="M951.296 523.008q0 47.104-12.288 81.92t-31.744 56.32-47.104 33.792-53.248 18.432-56.32 4.096-63.488-14.336-63.488-36.864-49.152-40.96-34.816-34.816q-10.24-13.312-27.648-13.312t-27.648 13.312q-14.336 15.36-34.816 34.816t-49.152 40.96-63.488 36.864-63.488 14.336-56.32-4.096-53.248-18.432-47.104-33.792-31.744-56.32-12.288-81.92q0-95.232 107.52-202.752l331.776-319.488 331.776 319.488q107.52 107.52 107.52 202.752zM1024 523.008q0-125.952-131.072-257.024l-355.328-343.040q-10.24-10.24-25.6-10.24t-25.6 10.24l-356.352 344.064q-5.12 5.12-15.36 15.36t-31.744 37.888-38.912 55.296-30.72 68.608-13.312 78.848q0 125.952 72.704 196.608t200.704 71.68q34.816 0 71.68-12.288t68.608-33.792 55.296-38.912 43.008-38.912q20.48 20.48 43.008 38.912t55.296 38.912 68.608 33.792 71.68 12.288q128 0 200.704-71.68t72.704-196.608z" />
<glyph unicode="&#xe804;" glyph-name="basket" horiz-adv-x="950" d="M365.568-13.568q0-29.696-21.504-51.2t-51.2-22.528-51.2 22.528-22.528 51.2 22.528 51.2 51.2 21.504 51.2-21.504 21.504-51.2zM877.568-13.568q0-29.696-21.504-51.2t-51.2-22.528-51.2 22.528-22.528 51.2 22.528 51.2 51.2 21.504 51.2-21.504 21.504-51.2zM951.296 608v-292.864q0-13.312-10.24-23.552t-22.528-12.288l-596.992-69.632q7.168-34.816 7.168-40.96 0-8.192-13.312-35.84h525.312q15.36 0 26.624-11.264t10.24-25.6-10.24-25.6-26.624-11.264h-584.704q-14.336 0-25.6 11.264t-11.264 25.6q0 6.144 5.12 18.432t9.216 20.48 12.288 22.528 8.192 17.408l-100.352 470.016h-116.736q-15.36 0-25.6 10.24t-11.264 25.6 11.264 26.624 25.6 10.24h146.432q9.216 0 16.384-3.072t10.24-9.216 8.192-14.336 4.096-14.336 3.072-17.408 3.072-14.336h686.080q14.336 0 25.6-11.264t11.264-25.6z" />
<glyph unicode="&#xe805;" glyph-name="left-open" horiz-adv-x="731" d="M669.696 691.968l-304.128-303.104 304.128-304.128q10.24-10.24 10.24-25.6t-10.24-25.6l-95.232-95.232q-11.264-10.24-25.6-10.24t-25.6 10.24l-423.936 424.96q-11.264 10.24-11.264 25.6t11.264 25.6l423.936 423.936q10.24 11.264 25.6 11.264t25.6-11.264l95.232-95.232q10.24-10.24 10.24-25.6t-10.24-25.6z" />
<glyph unicode="&#xe806;" glyph-name="right-open" horiz-adv-x="731" d="M632.832 363.264l-423.936-424.96q-11.264-10.24-25.6-10.24t-25.6 10.24l-95.232 95.232q-11.264 11.264-11.264 25.6t11.264 25.6l303.104 304.128-303.104 303.104q-11.264 11.264-11.264 25.6t11.264 25.6l95.232 95.232q10.24 11.264 25.6 11.264t25.6-11.264l423.936-423.936q10.24-11.264 10.24-25.6t-10.24-25.6z" />
<glyph unicode="&#xe807;" glyph-name="up-open" d="M961.536 103.168l-94.208-94.208q-11.264-10.24-26.624-10.24t-25.6 10.24l-303.104 304.128-303.104-304.128q-11.264-10.24-25.6-10.24t-25.6 10.24l-95.232 94.208q-11.264 11.264-11.264 26.624t11.264 25.6l423.936 423.936q11.264 10.24 25.6 10.24t25.6-10.24l423.936-423.936q11.264-11.264 11.264-25.6t-11.264-26.624z" />
<glyph unicode="&#xe808;" glyph-name="down-open" d="M961.536 402.176l-423.936-422.912q-10.24-11.264-25.6-11.264t-25.6 11.264l-423.936 422.912q-11.264 11.264-11.264 26.624t11.264 25.6l95.232 94.208q10.24 11.264 25.6 11.264t25.6-11.264l303.104-303.104 303.104 303.104q11.264 11.264 25.6 11.264t26.624-11.264l94.208-94.208q11.264-11.264 11.264-25.6t-11.264-26.624z" />
<glyph unicode="&#xe809;" glyph-name="ok" d="M955.392 540.416q0-22.528-16.384-38.912l-491.52-491.52q-16.384-15.36-38.912-15.36t-38.912 15.36l-284.672 284.672q-15.36 16.384-15.36 38.912t15.36 38.912l77.824 77.824q16.384 16.384 38.912 16.384t38.912-16.384l167.936-168.96 374.784 375.808q16.384 16.384 38.912 16.384t38.912-16.384l77.824-77.824q16.384-15.36 16.384-38.912z" />
<glyph unicode="&#xe80a;" glyph-name="star" horiz-adv-x="950" d="M951.296 494.336q0-12.288-15.36-27.648l-206.848-201.728 49.152-285.696q0-4.096 0-12.288 0-11.264-6.144-19.456t-17.408-9.216q-10.24 0-22.528 7.168l-257.024 135.168-256-135.168q-12.288-7.168-23.552-7.168t-17.408 9.216-6.144 19.456q0 4.096 1.024 12.288l49.152 285.696-207.872 201.728q-14.336 15.36-14.336 27.648 0 21.504 31.744 26.624l286.72 40.96 129.024 260.096q11.264 23.552 27.648 23.552t28.672-23.552l128-260.096 286.72-40.96q32.768-5.12 32.768-26.624z" />
<glyph unicode="&#xe80b;" glyph-name="star-empty" horiz-adv-x="950" d="M650.24 290.56l174.080 169.984-240.64 34.816-108.544 218.112-107.52-218.112-241.664-34.816 175.104-169.984-41.984-240.64 216.064 113.664 216.064-113.664zM951.296 494.336q0-12.288-15.36-27.648l-206.848-201.728 49.152-285.696q0-4.096 0-12.288 0-28.672-23.552-28.672-10.24 0-22.528 7.168l-257.024 135.168-256-135.168q-12.288-7.168-23.552-7.168t-17.408 9.216-6.144 19.456q0 4.096 1.024 12.288l49.152 285.696-207.872 201.728q-14.336 15.36-14.336 27.648 0 21.504 31.744 26.624l286.72 40.96 129.024 260.096q11.264 23.552 27.648 23.552t28.672-23.552l128-260.096 286.72-40.96q32.768-5.12 32.768-26.624z" />
<glyph unicode="&#xe80c;" glyph-name="eye" d="M951.296 315.136q-87.040 135.168-218.112 201.728 34.816-59.392 34.816-128 0-105.472-74.752-181.248t-181.248-74.752-181.248 74.752-74.752 181.248q0 68.608 34.816 128-131.072-66.56-218.112-201.728 76.8-116.736 191.488-186.368t247.808-69.632 248.832 69.632 190.464 186.368zM539.648 535.296q0 11.264-8.192 19.456t-19.456 7.168q-71.68 0-122.88-51.2t-51.2-121.856q0-11.264 8.192-19.456t19.456-8.192 19.456 8.192 8.192 19.456q0 49.152 34.816 83.968t83.968 34.816q11.264 0 19.456 8.192t8.192 19.456zM1024 315.136q0-19.456-11.264-38.912-79.872-132.096-215.040-210.944t-285.696-78.848-285.696 78.848-215.040 210.944q-11.264 19.456-11.264 38.912t11.264 39.936q79.872 131.072 215.040 209.92t285.696 79.872 285.696-79.872 215.040-209.92q11.264-20.48 11.264-39.936z" />
<glyph unicode="&#xe80d;" glyph-name="shuffle" d="M380.928 589.568q-34.816-53.248-78.848-156.672-12.288 25.6-20.48 41.984t-23.552 35.84-28.672 32.768-36.864 19.456-46.080 8.192h-128q-8.192 0-13.312 5.12t-5.12 13.312v109.568q0 8.192 5.12 13.312t13.312 5.12h128q142.336 0 234.496-128zM1024 132.864q0-8.192-5.12-13.312l-183.296-183.296q-5.12-5.12-12.288-5.12-8.192 0-13.312 6.144t-5.12 12.288v109.568q-18.432 0-49.152 0t-46.080-1.024-41.984 1.024-39.936 3.072-36.864 6.144-35.84 10.24-32.768 16.384-33.792 22.528-31.744 30.72-31.744 39.936q33.792 53.248 77.824 155.648 12.288-25.6 20.48-40.96t23.552-36.864 28.672-31.744 35.84-20.48 47.104-8.192h146.432v109.568q0 8.192 5.12 13.312t13.312 5.12q6.144 0 13.312-5.12l182.272-182.272q5.12-5.12 5.12-13.312zM1024 644.864q0-8.192-5.12-13.312l-183.296-183.296q-5.12-5.12-12.288-5.12-8.192 0-13.312 6.144t-5.12 12.288v109.568h-146.432q-27.648 0-50.176-8.192t-38.912-25.6-29.696-34.816-25.6-45.056q-18.432-34.816-44.032-97.28-16.384-37.888-28.672-63.488t-30.72-60.416-36.864-56.32-41.984-48.128-51.2-38.912-61.44-23.552-72.704-10.24h-128q-8.192 0-13.312 5.12t-5.12 13.312v109.568q0 8.192 5.12 13.312t13.312 5.12h128q27.648 0 49.152 9.216t39.936 25.6 28.672 34.816 26.624 44.032q17.408 35.84 44.032 98.304 16.384 36.864 28.672 63.488t30.72 59.392 36.864 57.344 41.984 47.104 51.2 39.936 60.416 23.552 73.728 9.216h146.432v109.568q0 8.192 5.12 13.312t13.312 5.12q6.144 0 13.312-5.12l182.272-182.272q5.12-5.12 5.12-13.312z" />
<glyph unicode="&#xe80e;" glyph-name="chart-bar" horiz-adv-x="1169" d="M365.568 352v-292.864h-146.432v292.864h146.432zM584.704 644.864v-585.728h-145.408v585.728h145.408zM1170.432-13.568v-73.728h-1170.432v878.592h72.704v-804.864h1097.728zM804.864 498.432v-439.296h-146.432v439.296h146.432zM1024 717.568v-658.432h-146.432v658.432h146.432z" />
<glyph unicode="&#xe80f;" glyph-name="cancel" horiz-adv-x="804" d="M741.376 108.288q0-22.528-15.36-38.912l-77.824-77.824q-16.384-15.36-38.912-15.36t-38.912 15.36l-167.936 168.96-167.936-168.96q-16.384-15.36-38.912-15.36t-38.912 15.36l-77.824 77.824q-16.384 16.384-16.384 38.912t16.384 38.912l167.936 167.936-167.936 167.936q-16.384 16.384-16.384 38.912t16.384 38.912l77.824 77.824q16.384 16.384 38.912 16.384t38.912-16.384l167.936-167.936 167.936 167.936q16.384 16.384 38.912 16.384t38.912-16.384l77.824-77.824q15.36-15.36 15.36-38.912t-15.36-38.912l-167.936-167.936 167.936-167.936q15.36-15.36 15.36-38.912z" />
<glyph unicode="&#xe810;" glyph-name="cancel-circled2" horiz-adv-x="878" d="M626.688 247.552l-82.944-83.968q-6.144-5.12-13.312-5.12t-13.312 5.12l-77.824 78.848-78.848-78.848q-5.12-5.12-13.312-5.12t-12.288 5.12l-83.968 83.968q-6.144 6.144-6.144 13.312t6.144 13.312l77.824 77.824-77.824 78.848q-6.144 5.12-6.144 12.288t6.144 13.312l83.968 83.968q5.12 5.12 12.288 5.12t13.312-5.12l78.848-78.848 77.824 78.848q6.144 5.12 13.312 5.12t13.312-5.12l82.944-83.968q6.144-5.12 6.144-13.312t-6.144-12.288l-77.824-78.848 77.824-77.824q6.144-6.144 6.144-13.312t-6.144-13.312zM749.568 352q0 84.992-41.984 155.648t-112.64 113.664-155.648 41.984-156.672-41.984-112.64-113.664-41.984-155.648 41.984-155.648 112.64-113.664 156.672-41.984 155.648 41.984 112.64 113.664 41.984 155.648zM877.568 352q0-119.808-58.368-220.16t-159.744-159.744-220.16-59.392-221.184 59.392-158.72 159.744-59.392 220.16 59.392 220.16 158.72 159.744 221.184 59.392 220.16-59.392 159.744-159.744 58.368-220.16z" />
<glyph unicode="&#xe811;" glyph-name="cancel-circled" horiz-adv-x="878" d="M656.384 222.976q0 14.336-10.24 25.6l-103.424 103.424 103.424 103.424q10.24 11.264 10.24 25.6 0 15.36-10.24 26.624l-52.224 51.2q-10.24 11.264-25.6 11.264t-25.6-11.264l-103.424-103.424-103.424 103.424q-11.264 11.264-25.6 11.264-16.384 0-26.624-11.264l-51.2-51.2q-11.264-11.264-11.264-26.624 0-14.336 11.264-25.6l103.424-103.424-103.424-103.424q-11.264-11.264-11.264-25.6 0-15.36 11.264-26.624l51.2-51.2q10.24-11.264 26.624-11.264 14.336 0 25.6 11.264l103.424 103.424 103.424-103.424q10.24-11.264 25.6-11.264t25.6 11.264l52.224 51.2q10.24 11.264 10.24 26.624zM877.568 352q0-119.808-58.368-220.16t-159.744-159.744-220.16-59.392-221.184 59.392-158.72 159.744-59.392 220.16 59.392 220.16 158.72 159.744 221.184 59.392 220.16-59.392 159.744-159.744 58.368-220.16z" />
<glyph unicode="&#xe900;" glyph-name="compare_ls" d="M289.966 277.338h107.032v-321.098h-107.032v321.098zM646.883 455.713h107.032v-493.657h-107.032v493.657zM468.382 741.12h107.034v-784.879h-107.034v784.879z" />
<glyph unicode="&#xe901;" glyph-name="option_ls" d="M186.918 409.56v-351.784c0-21.572-2.687-38.664 7.078-51.648 12.61-16.768 25.827-14.833 43.891-14.833 16.695 0 32.387-1.633 43.695 15.029 9.533 14.047 7.274 29.194 7.274 51.453v351.854c-7.441-2.085-14.448-5.989-23.357-8.263-8.65-2.206-18.171-3.437-27.609-3.454-23.033-0.041-32.338 4.99-50.971 11.647zM186.918 611.091c17.96 6.381 28.042 11.693 51 11.676 9.361-0.005 18.744-1.101 27.462-3.437 8.737-2.344 16.352-6.405 23.475-8.348 0 13.604 0.784 77.124-0.261 84.751-4.446 32.481-26.085 35.718-50.708 35.718-16.923 0-24.293 0.089-35.026-7.078-22.005-14.697-15.943-42.171-15.943-70.482 0-14.267 0-28.533 0-42.8zM541.486 147.76c-7.632-2.085-14.315-5.931-23.105-8.142-8.778-2.208-18.277-3.505-27.866-3.536-23.076-0.080-32.708 5.266-50.966 11.657 0-34.419 0-68.84 0-103.258 0-23.064-1.236-28.962 9.961-42.116 11.328-13.309 27.418-11.069 41.005-11.069 15.713 0 27.846-1.964 40.202 10.769 9.903 10.208 10.769 21.855 10.769 41.308-0.002 34.796 0 69.592 0 104.388zM734.505 492.502c-41.361-4.373-75.634-40.021-71-86.783 4.035-40.722 40.925-75.114 86.916-70.371 40.991 4.231 75.296 40.432 70.499 87.010-4.146 40.284-40.867 74.959-86.415 70.143zM229.394 588.818c-41.083-4.702-75.828-40.376-70.305-87.874 4.678-40.238 41.453-74.734 88.087-69.048 40.284 4.913 74.686 41.133 69.079 87.845-4.785 39.849-41.039 74.321-86.86 69.077zM477.19 326.381c-11.236-1.991-20.29-5.629-28.637-10.585-25.389-15.075-41.61-47.009-36.54-79.517 6.134-39.319 43.569-73.692 90.818-65.76 38.944 6.536 73.114 42.851 65.502 90.375-6.265 39.133-43.494 73.929-91.142 65.487zM691.069 514.596c6.855 1.894 14.356 5.834 22.595 8.096 9.066 2.489 18.63 3.674 28.342 3.679 23.381 0.010 32.687-5.372 51-11.666v166.885c0 13.594 0.411 28.848-10.89 38.973-11.548 10.346-22.803 10.887-40.079 10.887-18.749 0-36.649-1.079-46.187-20.292-7.479-15.065-4.782-44.51-4.782-62.807 0-44.585 0-89.171 0-133.756zM793.007 313.15c-19.303-6.703-28.161-11.87-52.079-11.63-9.395 0.094-18.776 1.381-27.387 3.677-8.401 2.24-15.3 5.963-22.472 8.036l-0.007-278.733c-0.119-22.128 8.536-36.615 27.51-42.295 4.656-1.393 40.096-1.456 45.226-0.513 5.689 1.050 12.271 4.376 15.667 7.605 9.32 8.858 13.616 15.072 13.543 32.991l-0.002 280.862zM439.549 349.288c18.277 5.612 23.981 11.758 50.966 11.683 27.433-0.077 32.679-6.333 50.971-11.86v324.724c0 20.253 0.203 33.533-9.685 44.609-11.55 12.936-23.954 13.009-41.286 13.006-10.788 0-16.378 0.114-24.644-1.945-12.656-3.154-22.905-14.605-25.73-27.457-2.068-9.41-0.593-331.615-0.593-352.761z" />
<glyph unicode="&#xe902;" glyph-name="cart_ls" d="M248.871 571.922c0 13.807 8.981 35.422 18.979 35.422h647.773c12.206 0 20.244-19.3 20.244-35.422 0-9.649-2.932-17.341-5.213-25.157l-76.479-268.912c-4.071-14.303-16.228-61.66-22.012-72.877-3.297-6.396-9.446-12.61-19.020-12.61h-440.284c-18.759 0-22.902 19.308-27.285 34.706-8.677 30.483-96.703 335.376-96.703 344.849zM27.467 760.432h111.335c16.124 0 15.35-13.906 19.973-31.898 17.37-67.596 35.142-144.75 53.683-210.74l70.301-247.26c3.875-13.797 7.649-27.116 11.512-40.362 3.803-13.028 7.293-28.872 12.428-40.708 9.291-21.422 31.26-45.173 61.102-45.173h449.14c25.928 0 47.887 19.105 57.35 36.271 8.957 16.25 16.971 50.669 22.796 70.828 27.875 96.471 54.856 197.034 83.218 292.54 16.383 55.166-17.39 112.757-65.944 112.757h-642.713c-24.811 0-33.928-13.265-41.75-13.916-0.133 5.965-9.739 41.475-11.894 50.098-5.733 22.936-16.185 79.476-30.778 94.478-6.202 6.376-9.139 9.707-17.614 14.015-6.836 3.476-14.801 7.148-24.479 7.148h-117.663v-48.078zM770.126-34.101c-57.78 0-78.162 77.207-24.479 104.19 51.003 25.636 105.699-37.82 63.358-87.4-7.484-8.764-25.437-16.79-38.879-16.79zM666.382 29.158c0-27.871 2.112-45.952 19.516-69.045 16.567-21.983 44.996-42.29 77.903-42.29 20.295 0 31.688 0.808 50.628 10.101 6.265 3.074 9.562 4.942 14.995 9.044 14.003 10.58 26.717 23.72 33.807 40.838 16.804 40.592 10.728 84.754-20.691 116.173-38.821 38.821-105.619 40.522-144.863 1.304-8.382-8.377-14.729-16.482-20.333-27.742-5.014-10.075-10.96-24.104-10.96-38.383zM432.324 75.971c14.458 0 30.805-8.563 38.323-16.078 33.458-33.458 11.7-93.994-39.588-93.994-21.981 0-40.838 13.783-49.351 32.885-16.168 36.271 10.926 77.187 50.616 77.187zM328.579 24.098c0-29.329 9.291-54.66 28.756-74.988 15.595-16.284 43.867-31.286 67.398-31.286 34.769 0 56.989 7.012 80.025 30.045 40.514 40.517 40.231 105.921 0.010 146.143-31.864 31.864-74.681 37.849-116.202 20.657-13.938-5.769-25.619-15.694-35.074-26.92-2.699-3.205-3.222-3.249-5.709-6.945-11.052-16.439-19.204-34.431-19.204-56.706zM560.107 509.928v-242.916c0-2.915 0.88-3.795 3.795-3.795h41.75c2.917 0 3.798 0.88 3.798 3.795v242.916c0 2.915-0.88 3.795-3.798 3.795h-41.75c-2.915 0-3.795-0.88-3.795-3.795zM407.020 509.928v-242.916c0-2.915 0.883-3.795 3.795-3.795h41.75c2.917 0 3.798 0.88 3.798 3.795v242.916c0 2.915-0.88 3.795-3.798 3.795h-41.75c-2.912 0-3.795-0.88-3.795-3.795zM713.195 509.928v-242.916c0-2.915 0.88-3.795 3.795-3.795h41.75c2.915 0 3.795 0.88 3.795 3.795v242.916c0 2.915-0.88 3.795-3.795 3.795h-41.75c-2.915 0-3.795-0.88-3.795-3.795z" />
<glyph unicode="&#xe903;" glyph-name="wishlist_ls" d="M76.786 465.251l-0.181 48.789c0.097 6.739 0.186 7.027 1.408 13.444 1.118 5.885 0.363 6.908 3.099 11.906l5.237 21.802 2.513 7.271c9.893 29.295 23.71 52.918 41.857 76.227 26.736 34.336 74.577 68.927 121.395 81.239 4.523 2.675 9.359 3.88 16.035 4.475l23.057 3.732 5.339 2.194c0.447 0.087 0.847 0.075 1.301 0.128l23.144 1.519c6.074 0.397 27.29 0.53 29.866-3.345 45.396 1.698 118.277-37.621 148.949-69.631 11.785-12.293 25.060-12.588 36.201-0.111 6.473 7.249 20.377 18.079 30.258 25.227 20.408 14.763 44.583 27.312 72.949 35.952l10.655 3.203c22.682 3.72 36.504 7.249 61.641 7.237 25.519-0.010 39.23-4.156 61.701-7.228 2.196-0.283 3.345-0.148 5.822-0.868 5.655-1.642 3.13-1.059 5.438-3.043 39.179-8.331 79.072-39.249 101.009-58.862 9.562-8.551 26.988-30.877 35.302-44.010 10.481-16.553 19.088-33.475 26.030-54.036l2.513-7.271c2.090-9.654 7.196-24.087 7.037-34.010 0.312-0.61 1.408-1.476 2.121-5.251 0.481-2.547 0.319-5.946 0.397-8.486l0.007-48.194c-0.068-2.085 0.080-4.922-0.223-7.099l-2.305-6.608c0.394-23.381-20.169-69.558-30.147-86.348-16.492-27.759-32.812-44.989-52.732-64.773-40.229-39.955-76.904-76.491-118.543-117.989l-13.974-14.62c-3.026-3.549-3.486-3.253-7.278-7.015-4.025-3.986-4.057-4.497-7.9-7.982-10.522-9.545-19.651-19.975-29.179-29.557l-148.228-147.023c-7.711-7.757-22.745-24.259-30.541-29.569-8.002 5.534-337.266 335.422-354.783 353.008-19.458 19.537-36.005 36.124-53.015 64.517-9.918 16.557-31.126 63.518-30.723 87.352-0.334 0.653-1.434 1.65-2.119 5.251-0.498 2.605-0.327 5.851-0.409 8.456zM38.531 434.661l3.094-10.774c4.838-32.227 22.653-65.158 37.258-89.32 16.828-27.839 37.912-47.527 57.998-67.434l321.526-321.381c3.205-2.864 4.533-5.201 7.784-8.086l24.083-23.558c7.728-7.719 14.467-18.747 27.561-18.747 12.336 0 28.306 18.285 36.315 27.457l16.124 15.626c110.072 108.512 219.371 220.019 330.118 328.698 5.73 5.622 10.546 9.893 15.498 16.243 4.915 6.299 10.104 10.438 15.123 16.63 27.176 33.528 56.14 77.959 63.032 123.872l3.094 10.774c1.028 28.434 7.373 35.139 3.667 79.076-2.066 24.472-6.92 48.105-14.625 69.338-28.737 79.214-87.163 144.309-165.156 174.483-63.719 24.651-85.905 19.235-145.388 19.325-1.064-0.573-0.273-0.704-3.894-1.642-1.265-0.327-3.183-0.469-4.535-0.651-2.791-0.368-5.539-0.709-8.432-1.079-22.027-1.817-61.629-16.637-78.513-26.025-42.892-23.853-35.328-23.775-62.427-41.342-6.398 4.173-11.093 8.273-16.63 12.629-14.24 11.197-35.352 24.656-53.018 32.677-88.738 40.28-191.41 35.481-271.701-12.89-32.259-19.433-38.388-26.443-63.375-50.865-36.876-36.039-67.299-96.248-75.252-150.185-9.1-61.699-0.977-57.142 0.672-102.849z" />
<glyph unicode="&#xf0ec;" glyph-name="exchange" d="M1024 187.136v-109.568q0-7.168-5.12-12.288t-13.312-6.144h-786.432v-109.568q0-7.168-5.12-12.288t-13.312-6.144q-6.144 0-13.312 6.144l-182.272 182.272q-5.12 6.144-5.12 13.312 0 8.192 5.12 13.312l183.296 182.272q5.12 5.12 12.288 5.12 8.192 0 13.312-5.12t5.12-13.312v-109.568h786.432q7.168 0 13.312-5.12t5.12-13.312zM1024 498.432q0-8.192-5.12-13.312l-183.296-182.272q-5.12-6.144-12.288-6.144-8.192 0-13.312 6.144t-5.12 12.288v109.568h-786.432q-7.168 0-13.312 6.144t-5.12 12.288v109.568q0 8.192 5.12 13.312t13.312 5.12h786.432v109.568q0 8.192 5.12 13.312t13.312 5.12q6.144 0 13.312-5.12l182.272-182.272q5.12-5.12 5.12-13.312z" />
<glyph unicode="&#xf217;" glyph-name="cart-plus" horiz-adv-x="950" d="M695.296 461.568q0 15.36-11.264 25.6t-25.6 11.264h-73.728v72.704q0 15.36-10.24 25.6t-25.6 11.264-25.6-11.264-11.264-25.6v-72.704h-72.704q-15.36 0-25.6-11.264t-11.264-25.6 11.264-25.6 25.6-11.264h72.704v-72.704q0-14.336 11.264-25.6t25.6-11.264 25.6 11.264 10.24 25.6v72.704h73.728q14.336 0 25.6 11.264t11.264 25.6zM365.568-13.568q0-30.72-21.504-52.224t-51.2-21.504-52.224 21.504-21.504 52.224 21.504 51.2 52.224 21.504 51.2-21.504 21.504-51.2zM877.568-13.568q0-30.72-21.504-52.224t-51.2-21.504-52.224 21.504-21.504 52.224 21.504 51.2 52.224 21.504 51.2-21.504 21.504-51.2zM951.296 608v-292.864q0-13.312-9.216-23.552t-23.552-12.288l-596.992-69.632q1.024-4.096 3.072-12.288t3.072-15.36 1.024-13.312q0-8.192-13.312-35.84h525.312q15.36 0 26.624-11.264t10.24-25.6-10.24-25.6-26.624-11.264h-584.704q-14.336 0-25.6 11.264t-11.264 25.6q0 8.192 6.144 22.528t17.408 33.792 11.264 22.528l-100.352 470.016h-116.736q-15.36 0-25.6 10.24t-11.264 25.6 11.264 26.624 25.6 10.24h146.432q9.216 0 16.384-3.072t11.264-9.216 7.168-14.336 4.096-15.36 3.072-16.384 3.072-14.336h686.080q14.336 0 25.6-11.264t11.264-25.6z" />
<glyph unicode="&#xf24d;" glyph-name="clone" d="M951.296-68.864v621.568q0 8.192-6.144 13.312t-12.288 5.12h-621.568q-8.192 0-13.312-5.12t-5.12-13.312v-621.568q0-7.168 5.12-12.288t13.312-6.144h621.568q7.168 0 12.288 6.144t6.144 12.288zM1024 552.704v-621.568q0-37.888-26.624-64.512t-64.512-26.624h-621.568q-37.888 0-64.512 26.624t-27.648 64.512v621.568q0 37.888 27.648 65.536t64.512 26.624h621.568q37.888 0 64.512-26.624t26.624-65.536zM804.864 772.864v-92.16h-73.728v92.16q0 7.168-5.12 12.288t-13.312 6.144h-621.568q-7.168 0-12.288-6.144t-6.144-12.288v-621.568q0-8.192 6.144-13.312t12.288-5.12h92.16v-73.728h-92.16q-36.864 0-64.512 27.648t-26.624 64.512v621.568q0 37.888 26.624 64.512t64.512 26.624h621.568q37.888 0 65.536-26.624t26.624-64.512z" />
<glyph unicode="&#xf24e;" glyph-name="balance-scale" horiz-adv-x="1316" d="M987.136 608l-219.136-402.432h439.296zM256 608l-219.136-402.432h438.272zM724.992 717.568q-8.192-22.528-25.6-40.96t-40.96-25.6v-738.304h347.136q8.192 0 13.312-5.12t5.12-12.288v-36.864q0-8.192-5.12-13.312t-13.312-5.12h-768q-8.192 0-13.312 5.12t-5.12 13.312v36.864q0 7.168 5.12 12.288t13.312 5.12h347.136v738.304q-22.528 8.192-39.936 25.6t-26.624 40.96h-280.576q-8.192 0-13.312 5.12t-5.12 13.312v36.864q0 8.192 5.12 13.312t13.312 5.12h280.576q12.288 31.744 39.936 52.224t63.488 20.48 63.488-20.48 39.936-52.224h280.576q8.192 0 13.312-5.12t5.12-13.312v-36.864q0-8.192-5.12-13.312t-13.312-5.12h-280.576zM621.568 708.352q19.456 0 32.768 13.312t13.312 32.768-13.312 31.744-32.768 14.336-31.744-14.336-13.312-31.744 13.312-32.768 31.744-13.312zM1243.136 205.568q0-41.984-26.624-74.752t-66.56-52.224-82.944-27.648-79.872-10.24-79.872 10.24-81.92 27.648-67.584 52.224-26.624 74.752q0 6.144 20.48 46.080t52.224 100.352 61.44 111.616 58.368 105.472 31.744 56.32q10.24 19.456 31.744 19.456t32.768-19.456q2.048-4.096 31.744-56.32t58.368-105.472 60.416-111.616 53.248-100.352 19.456-46.080zM512 205.568q0-41.984-26.624-74.752t-66.56-52.224-82.944-27.648-79.872-10.24-79.872 10.24-81.92 27.648-67.584 52.224-26.624 74.752q0 6.144 20.48 46.080t52.224 100.352 61.44 111.616 58.368 105.472 31.744 56.32q10.24 19.456 31.744 19.456t31.744-19.456q3.072-4.096 32.768-56.32t57.344-105.472 61.44-111.616 53.248-100.352 19.456-46.080z" />
</font>
</defs>
</svg>
