<svg width="82" height="42" viewBox="0 0 82 42" fill="none" xmlns="http://www.w3.org/2000/svg">
<path d="M77.2776 9.60305C77.1678 9.60305 77.0213 9.60305 76.9115 9.56681C75.0079 9.2769 73.8731 7.13885 74.8615 5.39942L75.9963 3.44256C76.5454 2.50037 76.216 1.26827 75.2642 0.724702L75.1544 0.652226C74.166 0.0724156 72.9213 0.398559 72.3722 1.37699L71.2374 3.33385C70.6883 4.27604 69.7365 4.74714 68.7847 4.74714C67.8329 4.7109 66.9177 4.2398 66.4052 3.33385L65.307 1.41323C64.7579 0.434797 63.4767 0.108654 62.5249 0.652226L62.4517 0.688464C61.4999 1.23204 61.1704 2.46413 61.7195 3.40632C62.2686 4.38475 62.8544 5.39942 62.8544 5.39942C63.8061 7.03014 62.891 8.987 61.1704 9.49433C60.9142 9.56681 60.6945 9.60305 60.4017 9.60305H58.0954C56.9606 9.60305 56.082 10.509 56.082 11.6324V11.7773C56.082 12.9007 56.9972 13.8067 58.0954 13.8067H60.4383C60.5481 13.8067 60.6945 13.8067 60.8044 13.8429C62.7079 14.1328 63.8427 16.2709 62.8544 18.0103L61.7195 20.0396C61.1704 21.0181 61.5365 22.2502 62.4883 22.7937L62.5249 22.83C63.4767 23.3735 64.6847 23.0474 65.2704 22.1052L66.4785 20.1121C67.0276 19.1699 67.9794 18.6988 68.9311 18.6988C69.8829 18.7351 70.7981 19.2062 71.3106 20.1121L72.4088 22.0327C72.9579 23.0112 74.2392 23.3373 75.191 22.7937C76.216 22.2139 76.5454 20.9093 75.9597 19.9309L74.8615 18.0465C73.9097 16.4158 74.8249 14.459 76.5454 13.9516C76.8017 13.8791 77.0213 13.8429 77.3142 13.8429H79.6204C80.7552 13.8429 81.6338 12.937 81.6338 11.8136V11.5961C81.6338 10.4728 80.7186 9.56681 79.6204 9.56681L77.2776 9.60305ZM70.9079 11.1613C71.274 12.7195 69.8829 14.0603 68.3088 13.698C67.5767 13.5168 66.991 12.9007 66.8079 12.176C66.4419 10.6177 67.8329 9.2769 69.407 9.63929C70.1026 9.85671 70.7249 10.4365 70.9079 11.1613Z" fill="#FF5210"/>
<path d="M51.8356 0.362305V31.8532H47.1865V0.362305H51.8356Z" fill="black"/>
<path d="M32.1411 9.53052C29.542 9.53052 27.1626 10.4002 25.259 11.8135L24.3804 9.53052H20.6465V41.6375H25.259V30.0413C27.1992 31.4546 29.5786 32.3243 32.1411 32.3243C38.5108 32.3243 43.6358 27.2147 43.6358 20.9455C43.6358 14.6763 38.5108 9.53052 32.1411 9.53052ZM32.1411 27.7583C28.4438 27.7583 25.442 24.8955 25.259 21.3079V20.4744C25.4786 16.8869 28.4804 14.024 32.1411 14.024C35.9483 14.024 39.0599 17.1043 39.0599 20.8731C39.0599 24.7143 35.9483 27.7583 32.1411 27.7583Z" fill="black"/>
<path d="M10.1403 18.9887L7.79746 18.5176C6.11353 18.1914 5.01532 17.3942 5.01532 16.0171C5.01532 14.6401 6.40639 13.5892 8.27335 13.5892C10.1403 13.5892 11.5314 14.6039 11.5314 16.0171H16.1805C15.7412 12.0672 12.2635 9.53052 8.27335 9.53052C4.53943 9.53052 0.585854 11.8498 0.585854 16.0171C0.585854 19.496 3.14835 21.7428 6.88228 22.6487C7.61442 22.8299 8.41978 23.0111 9.22514 23.1561C11.0921 23.4822 12.0073 24.1707 12.0073 25.5115C12.0073 25.5478 12.0073 25.729 12.0073 25.8014C12.0073 26.5624 11.4948 27.2147 10.6894 27.6496C10.6528 27.6858 10.6162 27.6858 10.5796 27.7221C9.95728 28.0844 9.15193 28.2656 8.30996 28.2656C6.91889 28.2656 6.04032 27.6496 5.52782 26.9973C5.05193 26.4175 5.01532 25.9826 5.01532 25.2216H0.366211V25.729C0.732282 29.6789 3.51442 32.2518 8.5296 32.2518C12.9591 32.2518 16.4367 29.2441 16.4367 25.5115C16.4367 21.779 13.801 19.7859 10.1403 18.9887Z" fill="black"/>
</svg>
