<svg xmlns="http://www.w3.org/2000/svg" width="23" height="20" viewBox="0 0 23 20"><g><g><path d="M12.388 14.459a.713.713 0 1 0 1.01 1.01l4.928-4.929a.705.705 0 0 0 .202-.54.704.704 0 0 0-.202-.541L13.398 4.53a.713.713 0 1 0-1.01 1.01l3.745 3.745H.714a.715.715 0 0 0 0 1.428h15.419zM5.714 0a2.857 2.857 0 0 0-2.857 2.857v2.857h1.429V2.857c0-.788.639-1.428 1.428-1.428H20c.79 0 1.429.64 1.429 1.428v14.286c0 .788-.64 1.428-1.429 1.428H5.714c-.789 0-1.428-.639-1.428-1.428v-2.857H2.857v2.857A2.857 2.857 0 0 0 5.714 20H20a2.857 2.857 0 0 0 2.857-2.857V2.857A2.857 2.857 0 0 0 20 0z"/></g></g></svg>