<svg width="21" height="26" viewBox="0 0 21 26" fill="none" xmlns="http://www.w3.org/2000/svg">
<path d="M6.27548 15.269H5.40788C4.84248 15.269 4.3799 14.8064 4.3799 14.241V13.213C4.3799 12.6476 4.8425 12.185 5.40789 12.185H6.12838M14.9848 12.185H15.6149C16.1803 12.185 16.6429 12.6476 16.6429 13.213L16.6429 14.241C16.6429 14.8064 16.1803 15.269 15.6149 15.269L14.6041 15.269M6.20158 8.83118V14.0906C6.20158 16.4159 8.10409 18.3183 10.4293 18.3183C12.7545 18.3183 14.657 16.4159 14.657 14.0906V8.18509C14.4113 6.39739 13.3227 5.88287 12.2695 5.88287H11.8408M14.1618 19.7219C13.2421 20.7485 11.9077 21.397 10.4293 21.397C8.99259 21.397 7.69199 20.7846 6.77559 19.8079M12.117 8.90839H7.51779C6.78349 8.90839 5.64759 8.50227 5.0424 7.51387C4.7796 7.08477 4.6168 6.54587 4.6303 5.88287H9.31279M12.2155 8.90839C13.2687 8.90839 14.7016 9.74368 14.657 11.9338M16.9894 1C17.6621 1.0749 18.3086 1.41269 18.7122 2.22639M5.399 17.7519C4.7578 16.8496 4.3799 15.7487 4.3799 14.5639M10.3579 13.0666C9.51918 13.0659 8.94859 13.7132 8.18029 13.8745C7.27989 14.0636 6.46889 13.3611 6.27739 12.5007M10.5235 13.0666C11.3623 13.0659 11.9329 13.7132 12.7012 13.8745C13.6016 14.0636 14.4125 13.3611 14.6041 12.5007M11.1303 15.5916H11.7619M14.4919 24.4543H15.1235M8.0843 17.7519C8.0843 18.7403 7.4773 19.454 6.6298 19.8898C5.4603 20.491 4.0861 20.5871 2.9611 21.2861C1.6893 22.0764 1 23.7065 1 25.1602M13 17.7519C13 18.7403 13.607 19.454 14.4545 19.8898C15.624 20.491 16.9982 20.5871 18.1232 21.2861C19.395 22.0764 20.0843 23.7065 20.0843 25.1602M17.4029 4.68857C17.085 3.12187 15.5431 2.10006 13.9764 2.41796" stroke="#E5E5E5" stroke-width="1.2347" stroke-miterlimit="10" stroke-linecap="round" stroke-linejoin="round"/>
</svg>
