<svg width="49" height="45" viewBox="0 0 49 45" fill="none" xmlns="http://www.w3.org/2000/svg">
<path d="M48.8391 19.136C48.3578 17.0553 46.8643 15.3987 44.8439 14.7049L16.0295 4.81348C13.8238 4.05711 11.3322 4.63334 9.68338 6.28202L1.79873 14.1662C-0.599576 16.5641 -0.599576 20.4664 1.79873 22.8643L21.1515 42.2178C22.3503 43.4166 23.9258 44.0161 25.5006 44.0161C27.0755 44.0161 28.6509 43.4166 29.8497 42.2176L47.1956 24.8716C48.706 23.3613 49.3208 21.2172 48.8391 19.136Z" fill="#A8CDCC"/>
<path d="M21.461 28.4171L30.827 19.0511" stroke="#1F1F1F" stroke-width="1.2347" stroke-miterlimit="10" stroke-linecap="round" stroke-linejoin="round"/>
<path d="M17.0962 21.0578L7.58496 30.569" stroke="#1F1F1F" stroke-width="1.2347" stroke-miterlimit="10" stroke-linecap="round" stroke-linejoin="round"/>
<path d="M7.58492 30.569C5.97283 32.1811 5.97283 34.8191 7.58492 36.4312" stroke="#1F1F1F" stroke-width="1.2347" stroke-miterlimit="10" stroke-linecap="round" stroke-linejoin="round"/>
<path d="M7.58496 36.4312C9.19704 38.0431 11.835 38.0431 13.4469 36.4312" stroke="#1F1F1F" stroke-width="1.2347" stroke-miterlimit="10" stroke-linecap="round" stroke-linejoin="round"/>
<path d="M13.447 36.4312L18.3059 31.5724" stroke="#1F1F1F" stroke-width="1.2347" stroke-miterlimit="10" stroke-linecap="round" stroke-linejoin="round"/>
<path d="M24.6494 13.5048L17.2352 20.919" stroke="#1F1F1F" stroke-width="1.2347" stroke-miterlimit="10" stroke-linecap="round" stroke-linejoin="round"/>
<path d="M30.8263 19.0534C34.0478 20.1233 37.7403 19.3766 40.3043 16.8128C43.0396 14.0773 43.7051 10.0576 42.304 6.69547" stroke="#1F1F1F" stroke-width="1.2347" stroke-miterlimit="10" stroke-linecap="round" stroke-linejoin="round"/>
<path d="M42.304 6.69547L36.2191 12.7801" stroke="#1F1F1F" stroke-width="1.2347" stroke-miterlimit="10" stroke-linecap="round" stroke-linejoin="round"/>
<path d="M36.219 12.7801C34.8486 14.1505 32.6062 14.1505 31.2358 12.7803" stroke="#1F1F1F" stroke-width="1.2347" stroke-miterlimit="10" stroke-linecap="round" stroke-linejoin="round"/>
<path d="M31.2358 12.7802V12.7801" stroke="#1F1F1F" stroke-width="1.2347" stroke-miterlimit="10" stroke-linecap="round" stroke-linejoin="round"/>
<path d="M31.2358 12.7801C29.8655 11.4101 29.8656 9.16763 31.2358 7.79727" stroke="#1F1F1F" stroke-width="1.2347" stroke-miterlimit="10" stroke-linecap="round" stroke-linejoin="round"/>
<path d="M31.2358 7.79727L37.3208 1.71228" stroke="#1F1F1F" stroke-width="1.2347" stroke-miterlimit="10" stroke-linecap="round" stroke-linejoin="round"/>
<path d="M37.3209 1.71229C33.9588 0.311232 29.9389 0.976674 27.2034 3.712C24.5432 6.37227 23.8391 10.248 25.0914 13.5515" stroke="#1F1F1F" stroke-width="1.2347" stroke-miterlimit="10" stroke-linecap="round" stroke-linejoin="round"/>
<path d="M25.0913 13.5515C25.4329 14.4527 25.9202 15.3115 26.5529 16.0913" stroke="#1F1F1F" stroke-width="1.2347" stroke-miterlimit="10" stroke-linecap="round" stroke-linejoin="round"/>
<path d="M12.6437 31.6132L11.8762 32.3807" stroke="#1F1F1F" stroke-width="1.2347" stroke-miterlimit="10" stroke-linecap="round" stroke-linejoin="round"/>
<path d="M31.2358 7.79727L36.219 12.7801" stroke="#1F1F1F" stroke-width="1.2347" stroke-miterlimit="10" stroke-linecap="round" stroke-linejoin="round"/>
<path d="M40.3455 34.8011C40.3455 36.6286 38.864 38.1101 37.0365 38.1101C35.209 38.1101 33.7275 36.6286 33.7275 34.8011C33.7275 32.9736 35.209 31.4921 37.0365 31.4921C38.864 31.4921 40.3455 32.9736 40.3455 34.8011Z" stroke="#1F1F1F" stroke-width="1.2347" stroke-miterlimit="10" stroke-linecap="round" stroke-linejoin="round"/>
<path d="M7.36131 10.2889C7.36131 11.334 6.51386 12.1813 5.46871 12.1813C4.4234 12.1813 3.57611 11.334 3.57611 10.2889C3.57611 9.24356 4.4234 8.39627 5.46871 8.39627C6.51386 8.39627 7.36131 9.24356 7.36131 10.2889Z" stroke="#1F1F1F" stroke-width="1.2347" stroke-miterlimit="10" stroke-linecap="round" stroke-linejoin="round"/>
</svg>
