<svg xmlns="http://www.w3.org/2000/svg" width="21" height="22" viewBox="0 0 21 22"><g><g><path d="M6.467 14.485c-.466 0-.905-.126-1.275-.343v1.655c0 .7.57 1.275 1.275 1.275h11.53a2.47 2.47 0 0 1 2.464 2.464A2.47 2.47 0 0 1 17.997 22a2.467 2.467 0 0 1-2.465-2.464c0-.452.122-.877.34-1.244h-5.49c.217.362.34.792.34 1.244A2.47 2.47 0 0 1 8.256 22a2.467 2.467 0 0 1-2.464-2.464c0-.461.131-.895.353-1.266a2.499 2.499 0 0 1-2.175-2.473V2.422L1.014 1.174a.61.61 0 0 1-.326-.8.61.61 0 0 1 .8-.326L4.822 1.45l.059.027c.004.005.009.005.013.01.01.004.023.013.036.022.01.009.019.013.028.022.004.005.013.01.018.014a.196.196 0 0 1 .031.027l.014.014.027.027.014.013c.004.01.013.018.018.027.004.01.009.014.013.023.005.01.01.014.014.023a.095.095 0 0 1 .018.027c.004.004.004.013.009.018.009.013.013.022.018.036 0 .005.005.014.005.018l.013.04c0 .01.005.014.005.023.004.014.004.023.009.037 0 .013.004.027.004.04a.278.278 0 0 1 .009.081v2.144l15.364 2.12c.01 0 .014.005.018.005.014 0 .023 0 .036.004.005 0 .014.005.023.005s.023.005.032.009c.009.005.018.005.027.01a5.7 5.7 0 0 0 .027.013l.027.013a5.7 5.7 0 0 1 .027.014c.01.009.018.013.027.018.01.004.014.009.023.013.009.005.018.014.027.019.01.004.014.013.023.018l.022.022c.005.005.014.01.018.018.005.01.014.014.018.023.005.009.014.013.019.023a.082.082 0 0 1 .018.022c.004.01.013.018.018.027.004.01.009.014.013.023l.014.027c.004.004.009.014.013.023l.014.031c.004.01.004.018.009.027.005.01.005.018.009.027.005.014.005.023.009.032 0 .01.005.018.005.027 0 .01.004.023.004.032.005.009.005.018.005.027V11.99a2.5 2.5 0 0 1-2.496 2.495zm1.795 3.803c-.683 0-1.244.56-1.244 1.243s.561 1.244 1.244 1.244c.683 0 1.243-.556 1.243-1.244 0-.687-.56-1.243-1.243-1.243zm9.739 0c-.683 0-1.243.56-1.243 1.243s.56 1.244 1.243 1.244 1.243-.556 1.243-1.244c0-.687-.56-1.243-1.243-1.243zm.588-5.024c.7 0 1.275-.57 1.275-1.279V7.414L5.192 5.393v6.596c0 .701.57 1.275 1.275 1.275z"/></g></g></svg>