<svg width="74" height="74" viewBox="0 0 74 74" fill="none" xmlns="http://www.w3.org/2000/svg">
<g clip-path="url(#clip0)">
<path d="M71.9552 6.55692L59.6218 0.390253C59.1077 0.134724 58.5414 0.00174713 57.9673 0.00174713C57.3932 0.00174713 56.8269 0.134724 56.3128 0.390253L43.9795 6.55692C43.3633 6.86258 42.8451 7.33467 42.4835 7.91972C42.1218 8.50477 41.9313 9.1794 41.9334 9.86719V20.9672H40.7C39.9997 20.9668 39.3074 21.1159 38.6693 21.4045C38.0313 21.6932 37.4622 22.1146 37 22.6408C36.5379 22.1146 35.9688 21.6932 35.3307 21.4045C34.6926 21.1159 34.0003 20.9668 33.3 20.9672H32.0667V9.86719C32.0689 9.17953 31.8785 8.50499 31.5171 7.91995C31.1557 7.33491 30.6377 6.86275 30.0218 6.55692L17.6885 0.390253C17.1744 0.134724 16.6081 0.00174713 16.034 0.00174713C15.4599 0.00174713 14.8936 0.134724 14.3795 0.390253L2.04612 6.55692C1.42997 6.86258 0.91174 7.33467 0.550116 7.91972C0.188492 8.50477 -0.00206993 9.1794 1.69583e-05 9.86719V29.6005C1.69583e-05 30.2547 0.259897 30.8821 0.722487 31.3447C1.18508 31.8073 1.81248 32.0672 2.46668 32.0672H29.6C30.2542 32.0672 30.8816 31.8073 31.3442 31.3447C31.8068 30.8821 32.0667 30.2547 32.0667 29.6005V23.4339H33.3C33.9542 23.4339 34.5816 23.6937 35.0442 24.1563C35.5068 24.6189 35.7667 25.2463 35.7667 25.9005V37.0005H17.2667C16.2854 37.0005 15.3443 37.3903 14.6504 38.0842C13.9565 38.7781 13.5667 39.7192 13.5667 40.7005V59.2005C12.9125 59.2005 12.2851 59.4604 11.8225 59.923C11.3599 60.3856 11.1 61.013 11.1 61.6672V65.3672C11.1 66.0214 11.3599 66.6488 11.8225 67.1114C12.2851 67.574 12.9125 67.8339 13.5667 67.8339H17.3777C17.6676 69.5574 18.5588 71.1225 19.8932 72.2513C21.2277 73.38 22.9189 73.9993 24.6667 73.9993C26.4145 73.9993 28.1057 73.38 29.4401 72.2513C30.7745 71.1225 31.6658 69.5574 31.9557 67.8339H43.2777C43.5676 69.5574 44.4588 71.1225 45.7933 72.2513C47.1277 73.38 48.8189 73.9993 50.5667 73.9993C52.3145 73.9993 54.0057 73.38 55.3401 72.2513C56.6745 71.1225 57.5658 69.5574 57.8557 67.8339H60.4334C61.0876 67.8339 61.715 67.574 62.1776 67.1114C62.6401 66.6488 62.9 66.0214 62.9 65.3672V61.6672C62.9 61.013 62.6401 60.3856 62.1776 59.923C61.715 59.4604 61.0876 59.2005 60.4334 59.2005V48.1005C60.4314 46.1385 59.6511 44.2574 58.2638 42.8701C56.8764 41.4828 54.9954 40.7025 53.0334 40.7005H43.1667C43.1667 39.7192 42.7769 38.7781 42.083 38.0842C41.3891 37.3903 40.448 37.0005 39.4667 37.0005H38.2334V25.9005C38.2334 25.2463 38.4932 24.6189 38.9558 24.1563C39.4184 23.6937 40.0458 23.4339 40.7 23.4339H41.9334V29.6005C41.9334 30.2547 42.1932 30.8821 42.6558 31.3447C43.1184 31.8073 43.7458 32.0672 44.4 32.0672H71.5334C72.1876 32.0672 72.815 31.8073 73.2776 31.3447C73.7402 30.8821 74 30.2547 74 29.6005V9.86719C74.0022 9.17953 73.8119 8.50499 73.4504 7.91995C73.0891 7.33491 72.5711 6.86275 71.9552 6.55692ZM24.6667 14.8005H7.40002V12.3339H24.6667V14.8005ZM7.40002 17.2672H24.6667V29.6005H22.2V27.1339C22.2 26.4797 21.9401 25.8522 21.4775 25.3897C21.015 24.9271 20.3876 24.6672 19.7334 24.6672H17.2667V22.2005C17.2667 21.5463 17.0068 20.9189 16.5442 20.4563C16.0816 19.9937 15.4542 19.7339 14.8 19.7339H12.3334C11.6792 19.7339 11.0517 19.9937 10.5892 20.4563C10.1266 20.9189 9.86668 21.5463 9.86668 22.2005V29.6005H7.40002V17.2672ZM14.8 24.6672H12.3334V22.2005H14.8V24.6672ZM12.3334 27.1339H14.8V29.6005H12.3334V27.1339ZM17.2667 29.6005V27.1339H19.7334V29.6005H17.2667ZM27.1334 29.6005V12.3339C27.1334 11.6797 26.8735 11.0522 26.4109 10.5897C25.9483 10.1271 25.3209 9.86719 24.6667 9.86719H7.40002C6.74582 9.86719 6.11841 10.1271 5.65582 10.5897C5.19323 11.0522 4.93335 11.6797 4.93335 12.3339V29.6005H2.46668V9.86719C2.46572 9.63781 2.52912 9.41277 2.64969 9.21764C2.77026 9.02251 2.94315 8.86512 3.14872 8.76335L15.4821 2.59669C15.6533 2.51134 15.842 2.46701 16.0334 2.46719C16.2242 2.46482 16.413 2.50705 16.5847 2.59052L28.918 8.75719C29.1245 8.85941 29.298 9.01776 29.4187 9.21409C29.5393 9.41042 29.6021 9.63677 29.6 9.86719V29.6005H27.1334ZM13.5667 61.6672H19.166C18.2313 62.7062 17.6111 63.9893 17.3777 65.3672H13.5667V61.6672ZM24.6667 71.5339C23.691 71.5339 22.7372 71.2445 21.9259 70.7024C21.1146 70.1604 20.4823 69.3899 20.1089 68.4884C19.7355 67.587 19.6378 66.5951 19.8281 65.6381C20.0185 64.6811 20.4884 63.8021 21.1783 63.1121C21.8682 62.4222 22.7473 61.9523 23.7042 61.762C24.6612 61.5716 25.6531 61.6693 26.5546 62.0427C27.456 62.4161 28.2265 63.0484 28.7686 63.8597C29.3107 64.671 29.6 65.6248 29.6 66.6005C29.6 67.9089 29.0803 69.1637 28.1551 70.0889C27.2299 71.0141 25.9751 71.5339 24.6667 71.5339ZM45.066 61.6672C44.1314 62.7062 43.5112 63.9893 43.2777 65.3672H31.9557C31.7222 63.9893 31.102 62.7062 30.1674 61.6672H45.066ZM50.5667 71.5339C49.591 71.5339 48.6372 71.2445 47.8259 70.7024C47.0146 70.1604 46.3823 69.3899 46.0089 68.4884C45.6355 67.587 45.5378 66.5951 45.7281 65.6381C45.9185 64.6811 46.3884 63.8021 47.0783 63.1121C47.7682 62.4222 48.6473 61.9523 49.6042 61.762C50.5612 61.5716 51.5532 61.6693 52.4546 62.0427C53.356 62.4161 54.1265 63.0484 54.6686 63.8597C55.2107 64.671 55.5 65.6248 55.5 66.6005C55.5 67.9089 54.9803 69.1637 54.0551 70.0889C53.1299 71.0141 51.8751 71.5339 50.5667 71.5339ZM60.4334 65.3672H57.8557C57.6222 63.9893 57.002 62.7062 56.0674 61.6672H60.4334V65.3672ZM54.6848 43.4718L53.3947 44.7619C53.2769 44.8757 53.183 45.0118 53.1183 45.1622C53.0537 45.3127 53.0197 45.4745 53.0182 45.6383C53.0168 45.8021 53.048 45.9645 53.11 46.116C53.1721 46.2676 53.2636 46.4053 53.3794 46.5211C53.4952 46.6369 53.6329 46.7285 53.7845 46.7905C53.9361 46.8525 54.0985 46.8837 54.2623 46.8823C54.426 46.8809 54.5879 46.8469 54.7383 46.7822C54.8888 46.7176 55.0249 46.6236 55.1387 46.5058L56.7519 44.8939C57.5304 45.7812 57.9618 46.9201 57.9667 48.1005V49.3339H51.8C51.4729 49.3339 51.1592 49.2039 50.9279 48.9726C50.6966 48.7413 50.5667 48.4276 50.5667 48.1005V43.1672H53.0334C53.5973 43.1729 54.156 43.276 54.6848 43.4718ZM48.1 43.1672V48.1005C48.1 49.0818 48.4898 50.0229 49.1837 50.7168C49.8776 51.4107 50.8187 51.8005 51.8 51.8005H57.9667V59.2005H43.1667V43.1672H48.1ZM40.7 40.7005V59.2005H16.0334V40.7005C16.0334 40.3734 16.1633 40.0597 16.3946 39.8284C16.6259 39.5971 16.9396 39.4672 17.2667 39.4672H39.4667C39.7938 39.4672 40.1075 39.5971 40.3388 39.8284C40.5701 40.0597 40.7 40.3734 40.7 40.7005ZM66.6 14.8005H49.3334V12.3339H66.6V14.8005ZM49.3334 17.2672H66.6V29.6005H64.1334V27.1339C64.1334 26.4797 63.8735 25.8522 63.4109 25.3897C62.9483 24.9271 62.3209 24.6672 61.6667 24.6672H59.2V22.2005C59.2 21.5463 58.9401 20.9189 58.4776 20.4563C58.015 19.9937 57.3876 19.7339 56.7334 19.7339H54.2667C53.6125 19.7339 52.9851 19.9937 52.5225 20.4563C52.0599 20.9189 51.8 21.5463 51.8 22.2005V29.6005H49.3334V17.2672ZM56.7334 24.6672H54.2667V22.2005H56.7334V24.6672ZM54.2667 27.1339H56.7334V29.6005H54.2667V27.1339ZM59.2 29.6005V27.1339H61.6667V29.6005H59.2ZM69.0667 29.6005V12.3339C69.0667 11.6797 68.8068 11.0522 68.3442 10.5897C67.8816 10.1271 67.2542 9.86719 66.6 9.86719H49.3334C48.6792 9.86719 48.0518 10.1271 47.5892 10.5897C47.1266 11.0522 46.8667 11.6797 46.8667 12.3339V29.6005H44.4V9.86719C44.3991 9.63781 44.4625 9.41277 44.583 9.21764C44.7036 9.02251 44.8765 8.86512 45.0821 8.76335L57.4154 2.59669C57.5866 2.51134 57.7754 2.46701 57.9667 2.46719C58.1576 2.46482 58.3463 2.50705 58.518 2.59052L70.8513 8.75719C71.0578 8.85941 71.2314 9.01776 71.352 9.21409C71.4726 9.41042 71.5355 9.63677 71.5334 9.86719V29.6005H69.0667Z" fill="#FF5319"/>
<path d="M17.2667 4.93333H14.8C14.4729 4.93333 14.1592 5.06327 13.9279 5.29456C13.6966 5.52586 13.5667 5.83956 13.5667 6.16666C13.5667 6.49376 13.6966 6.80746 13.9279 7.03876C14.1592 7.27005 14.4729 7.39999 14.8 7.39999H17.2667C17.5938 7.39999 17.9075 7.27005 18.1387 7.03876C18.37 6.80746 18.5 6.49376 18.5 6.16666C18.5 5.83956 18.37 5.52586 18.1387 5.29456C17.9075 5.06327 17.5938 4.93333 17.2667 4.93333Z" fill="#FF5319"/>
<path d="M59.2 4.93333H56.7333C56.4062 4.93333 56.0925 5.06327 55.8612 5.29456C55.6299 5.52586 55.5 5.83956 55.5 6.16666C55.5 6.49376 55.6299 6.80746 55.8612 7.03876C56.0925 7.27005 56.4062 7.39999 56.7333 7.39999H59.2C59.5271 7.39999 59.8408 7.27005 60.0721 7.03876C60.3034 6.80746 60.4333 6.49376 60.4333 6.16666C60.4333 5.83956 60.3034 5.52586 60.0721 5.29456C59.8408 5.06327 59.5271 4.93333 59.2 4.93333Z" fill="#FF5319"/>
<path d="M51.8 56.7333H54.2667C54.5938 56.7333 54.9075 56.6034 55.1388 56.3721C55.37 56.1408 55.5 55.8271 55.5 55.5C55.5 55.1729 55.37 54.8592 55.1388 54.6279C54.9075 54.3966 54.5938 54.2667 54.2667 54.2667H51.8C51.4729 54.2667 51.1592 54.3966 50.9279 54.6279C50.6966 54.8592 50.5667 55.1729 50.5667 55.5C50.5667 55.8271 50.6966 56.1408 50.9279 56.3721C51.1592 56.6034 51.4729 56.7333 51.8 56.7333Z" fill="#FF5319"/>
<path d="M35.7666 54.2667H22.1999C21.8728 54.2667 21.5591 54.3966 21.3278 54.6279C21.0965 54.8592 20.9666 55.1729 20.9666 55.5C20.9666 55.8271 21.0965 56.1408 21.3278 56.3721C21.5591 56.6034 21.8728 56.7333 22.1999 56.7333H35.7666C36.0937 56.7333 36.4074 56.6034 36.6386 56.3721C36.8699 56.1408 36.9999 55.8271 36.9999 55.5C36.9999 55.1729 36.8699 54.8592 36.6386 54.6279C36.4074 54.3966 36.0937 54.2667 35.7666 54.2667Z" fill="#FF5319"/>
<path d="M35.7666 48.1H22.1999C21.8728 48.1 21.5591 48.2299 21.3278 48.4612C21.0965 48.6925 20.9666 49.0062 20.9666 49.3333C20.9666 49.6604 21.0965 49.9741 21.3278 50.2054C21.5591 50.4367 21.8728 50.5667 22.1999 50.5667H35.7666C36.0937 50.5667 36.4074 50.4367 36.6386 50.2054C36.8699 49.9741 36.9999 49.6604 36.9999 49.3333C36.9999 49.0062 36.8699 48.6925 36.6386 48.4612C36.4074 48.2299 36.0937 48.1 35.7666 48.1Z" fill="#FF5319"/>
<path d="M35.7666 41.9333H22.1999C21.8728 41.9333 21.5591 42.0633 21.3278 42.2946C21.0965 42.5259 20.9666 42.8396 20.9666 43.1667C20.9666 43.4938 21.0965 43.8075 21.3278 44.0388C21.5591 44.2701 21.8728 44.4 22.1999 44.4H35.7666C36.0937 44.4 36.4074 44.2701 36.6386 44.0388C36.8699 43.8075 36.9999 43.4938 36.9999 43.1667C36.9999 42.8396 36.8699 42.5259 36.6386 42.2946C36.4074 42.0633 36.0937 41.9333 35.7666 41.9333Z" fill="#FF5319"/>
<path d="M25.9 65.3667H23.4333C23.1062 65.3667 22.7925 65.4966 22.5612 65.7279C22.3299 65.9592 22.2 66.2729 22.2 66.6C22.2 66.9271 22.3299 67.2408 22.5612 67.4721C22.7925 67.7034 23.1062 67.8333 23.4333 67.8333H25.9C26.2271 67.8333 26.5408 67.7034 26.7721 67.4721C27.0033 67.2408 27.1333 66.9271 27.1333 66.6C27.1333 66.2729 27.0033 65.9592 26.7721 65.7279C26.5408 65.4966 26.2271 65.3667 25.9 65.3667Z" fill="#FF5319"/>
<path d="M51.7999 65.3667H49.3332C49.0061 65.3667 48.6924 65.4966 48.4611 65.7279C48.2298 65.9592 48.0999 66.2729 48.0999 66.6C48.0999 66.9271 48.2298 67.2408 48.4611 67.4721C48.6924 67.7034 49.0061 67.8333 49.3332 67.8333H51.7999C52.127 67.8333 52.4407 67.7034 52.672 67.4721C52.9033 67.2408 53.0332 66.9271 53.0332 66.6C53.0332 66.2729 52.9033 65.9592 52.672 65.7279C52.4407 65.4966 52.127 65.3667 51.7999 65.3667Z" fill="#FF5319"/>
</g>
<defs>
<clipPath id="clip0">
<rect width="74" height="74" fill="white"/>
</clipPath>
</defs>
</svg>
