<svg width="599" height="409" viewBox="0 0 599 409" fill="none" xmlns="http://www.w3.org/2000/svg">
<mask id="mask0" mask-type="alpha" maskUnits="userSpaceOnUse" x="13" y="14" width="573" height="450">
<path d="M323.019 459.066L432.322 412.207C446.164 406.199 457.644 395.769 464.86 382.267L580.615 166.399C590.454 147.988 583.488 124.92 565.118 115.087C507.56 84.2741 394.894 23.9602 384.178 18.2238C375.605 13.6347 365.513 13.3626 356.843 17.7981L94.1857 147.526C87.2538 150.919 81.339 156.83 77.7312 163.581L17.8749 275.586C8.0355 293.998 15.0018 317.065 33.3714 326.899L276.156 456.869C290.852 464.736 307.93 465.196 323.019 459.066Z" fill="white"/>
</mask>
<g mask="url(#mask0)">
<rect x="-16" y="72" width="686" height="280" fill="white"/>
</g>
</svg>
