<svg width="1077" height="917" viewBox="0 0 1077 917" fill="none" xmlns="http://www.w3.org/2000/svg">
<path d="M914.702 614.295L694.985 503.881C668.189 490.415 657.379 457.787 670.84 431.001L735.003 303.319C748.464 276.533 737.654 243.905 710.861 230.441L465.036 106.907C446.729 97.7067 424.802 99.5894 408.341 111.782L108.738 333.636C83.4976 352.326 63.0056 376.68 48.9067 404.736L24.3719 453.559C10.9112 480.345 21.7214 512.974 48.5177 526.439L775.312 891.674C802.11 905.136 834.743 894.339 848.201 867.557L938.85 687.171C952.309 660.39 941.499 627.761 914.702 614.295Z" fill="#E8531E"/>
</svg>
