<svg width="514" height="300" viewBox="0 0 514 100" fill="none" xmlns="http://www.w3.org/2000/svg">
<mask id="mask0" mask-type="alpha" maskUnits="userSpaceOnUse" x="8" y="67" width="497" height="415">
<path d="M107.855 431.355L211.721 476.118C224.926 481.738 239.636 482.834 253.675 478.978L478.392 417.59C497.536 412.331 508.895 392.428 503.66 373.316C487.256 313.433 455.146 196.214 452.093 185.066C449.649 176.147 443.233 169.005 434.498 165.924L173.089 69.567C166.211 67.0039 158.262 66.7902 151.242 68.7185L34.7793 100.711C15.6348 105.97 4.27561 125.873 9.5109 144.985L78.7039 397.578C82.8922 412.868 93.751 424.955 107.855 431.355Z" fill="#202020"/>
</mask>
<g mask="url(#mask0)">
<rect x="-959" y="-470" width="1440" height="676" rx="3" fill="#E8531E"/>
</g>
</svg>
