<svg width="288" height="201" viewBox="0 0 288 201" fill="none" xmlns="http://www.w3.org/2000/svg">
<mask id="mask0" mask-type="alpha" maskUnits="userSpaceOnUse" x="0" y="0" width="288" height="288">
<path d="M0.00724165 133.113C0.255078 129.649 6.94665 126.68 7.44232 123.464C7.938 120 2.23776 115.299 2.98127 111.835C3.72478 108.371 10.912 106.639 11.9034 103.423C12.8947 99.9588 7.93798 94.5155 9.425 91.299C10.6642 88.0825 18.0993 87.3402 19.5863 84.1237C21.0733 80.9072 17.1079 74.7216 18.8428 71.7526C20.5776 68.7835 28.0127 69.0309 29.9954 66.3093C31.9781 63.3402 29.0041 56.6598 30.9867 53.9381C33.2173 51.2165 40.4045 52.701 42.635 50.2268C45.1134 47.7526 42.8829 40.5773 45.6091 38.3505C48.0874 35.8763 55.0268 38.5979 57.753 36.3711C60.4792 34.1443 59.4879 26.9691 62.4619 24.9897C65.436 23.0103 71.8797 26.4742 74.8537 24.7423C77.8278 23.0103 78.0756 15.5876 81.2975 14.1031C84.5193 12.6186 90.2196 17.0722 93.4414 15.8351C96.6633 14.5979 97.9025 7.42268 101.372 6.18557C104.842 5.19588 109.799 10.3918 113.268 9.64949C116.738 8.90722 118.969 1.97939 122.438 1.48454C125.908 0.989696 130.121 6.92784 133.591 6.68041C137.061 6.43299 140.282 0 144 0C147.47 0 150.939 6.43299 154.409 6.68041C157.879 6.92784 162.092 0.989696 165.562 1.48454C169.031 1.97939 171.262 8.90722 174.732 9.64949C178.201 10.3918 183.158 5.19588 186.628 6.18557C190.097 7.17526 191.089 14.3505 194.559 15.8351C197.78 17.0722 203.728 12.6186 206.703 14.1031C209.924 15.5876 209.924 23.0103 213.146 24.7423C216.12 26.4742 222.564 23.0103 225.538 24.9897C228.512 26.9691 227.521 34.1443 230.247 36.3711C232.973 38.5979 239.913 36.1237 242.391 38.3505C244.869 40.8247 242.887 47.7526 245.365 50.2268C247.843 52.701 255.031 51.2165 257.013 53.9381C259.244 56.6598 256.022 63.3402 258.005 66.3093C259.987 69.2784 267.422 68.7835 269.157 71.7526C270.892 74.7216 266.927 80.9072 268.414 84.1237C269.901 87.3402 277.336 87.8351 278.575 91.299C279.814 94.5155 274.857 99.9588 276.097 103.423C277.088 106.887 284.275 108.619 285.019 111.835C285.762 115.299 280.062 120 280.558 123.464C281.053 126.928 287.745 129.649 287.993 133.113C288.241 136.577 282.045 140.289 282.045 144C282.045 147.464 288.241 151.175 287.993 154.887C287.745 158.351 281.053 161.32 280.558 164.536C280.062 168 285.762 172.701 285.019 176.165C284.275 179.629 277.088 181.361 276.097 184.577C275.105 188.041 280.062 193.485 278.575 196.701C277.336 199.918 269.901 200.66 268.414 203.876C266.927 207.093 270.892 213.278 269.157 216.247C267.422 219.216 259.987 218.969 258.005 221.691C256.022 224.66 258.996 231.34 257.013 234.062C254.783 236.783 247.595 235.299 245.365 237.773C242.887 240.247 245.117 247.423 242.391 249.649C239.913 252.124 232.973 249.402 230.247 251.629C227.521 253.856 228.512 261.031 225.538 263.01C222.564 264.99 216.12 261.526 213.146 263.258C210.172 264.99 209.924 272.412 206.703 273.897C203.481 275.381 197.78 270.928 194.559 272.165C191.337 273.402 190.097 280.577 186.628 281.814C183.158 282.804 178.201 277.608 174.732 278.351C171.262 279.093 169.031 286.021 165.562 286.515C162.092 287.01 157.879 281.072 154.409 281.32C150.939 281.567 147.718 288 144 288C140.53 288 137.061 281.567 133.591 281.32C130.121 281.072 125.908 287.01 122.438 286.515C118.969 286.021 116.738 279.093 113.268 278.351C109.799 277.608 104.842 282.804 101.372 281.814C97.9025 280.825 96.9111 273.65 93.4414 272.165C90.2196 270.928 84.2715 275.381 81.2975 273.897C78.0756 272.412 78.0756 264.99 74.8537 263.258C71.8797 261.526 65.436 264.99 62.4619 263.01C59.4879 261.031 60.4792 253.856 57.753 251.629C55.0268 249.402 48.0874 251.876 45.6091 249.649C43.1307 247.175 45.1134 240.247 42.635 237.773C40.1567 235.299 32.9694 236.783 30.9867 234.062C28.7562 231.34 31.9781 224.66 29.9954 221.691C28.0127 218.722 20.5776 219.216 18.8428 216.247C17.1079 213.278 21.0733 207.093 19.5863 203.876C18.0993 200.66 10.6642 200.165 9.425 196.701C8.18582 193.485 13.1425 188.041 11.9034 184.577C10.912 181.113 3.72478 179.381 2.98127 176.165C2.23776 172.701 7.938 168 7.44232 164.536C6.94665 161.072 0.255078 158.351 0.00724165 154.887C-0.240594 151.423 5.95531 147.711 5.95531 144C5.95531 140.536 -0.240594 136.577 0.00724165 133.113ZM144 157.361C151.435 157.361 157.383 151.423 157.383 144C157.383 136.577 151.435 130.639 144 130.639C136.565 130.639 130.617 136.577 130.617 144C130.617 151.423 136.565 157.361 144 157.361Z" fill="white"/>
</mask>
<g mask="url(#mask0)">
<rect x="-144" y="-37" width="876" height="239" fill="#A9CECD"/>
</g>
</svg>
