<svg xmlns="http://www.w3.org/2000/svg" width="265" height="100" viewBox="0 0 265 100" fill="none">
<mask id="mask0" mask-type="alpha" maskUnits="userSpaceOnUse" x="0" y="0" width="265" height="265">
<path d="M0.00666332 122.483C0.234707 119.296 6.39188 116.564 6.84797 113.604C7.30406 110.417 2.05905 106.091 2.74318 102.904C3.42731 99.7165 10.0406 98.1229 10.9527 95.1632C11.8649 91.976 7.30405 86.9674 8.67231 84.0077C9.81253 81.0481 16.6539 80.3651 18.0221 77.4055C19.3904 74.4459 15.7417 68.7543 17.338 66.0223C18.9343 63.2904 25.7756 63.518 27.5999 61.0138C29.4243 58.2818 26.6878 52.1349 28.5121 49.6306C30.5645 47.1263 37.1778 48.4923 39.2302 46.2156C41.5106 43.939 39.4582 37.3368 41.9667 35.2878C44.2471 33.0112 50.6323 35.5155 53.1408 33.4665C55.6493 31.4175 54.7371 24.8153 57.4736 22.994C60.2102 21.1727 66.1393 24.36 68.8758 22.7663C71.6124 21.1727 71.8404 14.3428 74.805 12.9768C77.7695 11.6108 83.0145 15.7088 85.9791 14.5704C88.9437 13.4321 90.0839 6.8299 93.2765 5.69158C96.4691 4.78093 101.03 9.56186 104.223 8.87887C107.415 8.19588 109.468 1.82131 112.66 1.36598C115.853 0.910658 119.73 6.37457 122.922 6.14691C126.115 5.91925 129.079 0 132.5 0C135.693 0 138.885 5.91925 142.078 6.14691C145.27 6.37457 149.147 0.910658 152.34 1.36598C155.532 1.82131 157.585 8.19588 160.777 8.87887C163.97 9.56186 168.531 4.78093 171.723 5.69158C174.916 6.60223 175.828 13.2045 179.021 14.5704C181.985 15.7088 187.459 11.6108 190.195 12.9768C193.16 14.3428 193.16 21.1727 196.124 22.7663C198.861 24.36 204.79 21.1727 207.526 22.994C210.263 24.8153 209.351 31.4175 211.859 33.4665C214.368 35.5155 220.753 33.2388 223.033 35.2878C225.314 37.5644 223.489 43.939 225.77 46.2156C228.05 48.4923 234.664 47.1263 236.488 49.6306C238.54 52.1349 235.576 58.2818 237.4 61.0138C239.224 63.7457 246.066 63.2904 247.662 66.0223C249.258 68.7543 245.61 74.4459 246.978 77.4055C248.346 80.3651 255.187 80.8204 256.328 84.0077C257.468 86.9674 252.907 91.976 254.047 95.1632C254.959 98.3505 261.573 99.9442 262.257 102.904C262.941 106.091 257.696 110.417 258.152 113.604C258.608 116.791 264.765 119.296 264.993 122.483C265.221 125.67 259.52 129.085 259.52 132.5C259.52 135.687 265.221 139.102 264.993 142.517C264.765 145.704 258.608 148.436 258.152 151.396C257.696 154.583 262.941 158.909 262.257 162.096C261.573 165.284 254.959 166.877 254.047 169.837C253.135 173.024 257.696 178.033 256.328 180.992C255.187 183.952 248.346 184.635 246.978 187.595C245.61 190.554 249.258 196.246 247.662 198.978C246.066 201.71 239.224 201.482 237.4 203.986C235.576 206.718 238.312 212.865 236.488 215.369C234.436 217.874 227.822 216.508 225.77 218.784C223.489 221.061 225.542 227.663 223.033 229.712C220.753 231.989 214.368 229.485 211.859 231.534C209.351 233.582 210.263 240.185 207.526 242.006C204.79 243.827 198.861 240.64 196.124 242.234C193.388 243.827 193.16 250.657 190.195 252.023C187.23 253.389 181.985 249.291 179.021 250.43C176.056 251.568 174.916 258.17 171.723 259.308C168.531 260.219 163.97 255.438 160.777 256.121C157.585 256.804 155.532 263.179 152.34 263.634C149.147 264.089 145.27 258.625 142.078 258.853C138.885 259.081 135.921 265 132.5 265C129.307 265 126.115 259.081 122.922 258.853C119.73 258.625 115.853 264.089 112.66 263.634C109.468 263.179 107.415 256.804 104.223 256.121C101.03 255.438 96.4691 260.219 93.2765 259.308C90.0839 258.398 89.1717 251.796 85.9791 250.43C83.0145 249.291 77.5415 253.389 74.805 252.023C71.8404 250.657 71.8404 243.827 68.8758 242.234C66.1393 240.64 60.2102 243.827 57.4736 242.006C54.7371 240.185 55.6493 233.582 53.1408 231.534C50.6323 229.485 44.2471 231.761 41.9667 229.712C39.6863 227.436 41.5106 221.061 39.2302 218.784C36.9497 216.508 30.3365 217.874 28.5121 215.369C26.4597 212.865 29.4243 206.718 27.5999 203.986C25.7756 201.254 18.9343 201.71 17.338 198.978C15.7417 196.246 19.3904 190.554 18.0221 187.595C16.6539 184.635 9.81253 184.18 8.67231 180.992C7.53209 178.033 12.093 173.024 10.9527 169.837C10.0406 166.649 3.42731 165.056 2.74318 162.096C2.05905 158.909 7.30406 154.583 6.84797 151.396C6.39188 148.209 0.234707 145.704 0.00666332 142.517C-0.22138 139.33 5.47971 135.915 5.47971 132.5C5.47971 129.313 -0.22138 125.67 0.00666332 122.483ZM132.5 144.794C139.341 144.794 144.814 139.33 144.814 132.5C144.814 125.67 139.341 120.206 132.5 120.206C125.659 120.206 120.186 125.67 120.186 132.5C120.186 139.33 125.659 144.794 132.5 144.794Z" fill="white"/>
</mask>
<g mask="url(#mask0)">
<rect x="-86" y="-236" width="502" height="336" fill="#F1F1F1"/>
</g>
</svg>