<svg xmlns="http://www.w3.org/2000/svg" width="780" height="913" viewBox="0 0 780 913" fill="none">
<mask id="mask0" mask-type="alpha" maskUnits="userSpaceOnUse" x="21" y="152" width="874" height="669">
<path d="M471.414 816.235L639.982 755.964C661.336 748.221 679.55 733.614 691.643 713.997L885.571 400.395C902.061 373.645 893.732 338.341 867.044 321.864C783.422 270.234 619.736 169.171 604.168 159.559C591.714 151.869 576.576 150.525 563.138 156.385L156.481 326.948C145.752 331.403 136.317 339.736 130.271 349.544L29.9569 512.278C13.4669 539.029 21.7952 574.332 48.4832 590.81L401.208 808.59C422.559 821.772 448.176 824.047 471.414 816.235Z" fill="#A9CECD"/>
</mask>
<g mask="url(#mask0)">
<rect x="0" y="605" width="1440" height="334" rx="3" fill="#A9CECD"/>
</g>
</svg>